<svg id="Capa_1" enable-background="new 0 0 497 497" height="512" viewBox="0 0 497 497" width="512" xmlns="http://www.w3.org/2000/svg"><g><path d="m332 0v80l-332-20v-30c0-16.569 13.431-30 30-30z" fill="#95b0ed"/><path d="m467 0h-45l-15 120 90-30v-60c0-16.569-13.431-30-30-30z" fill="#5c2bc8"/><path d="m422 0h-90c-24.853 0-45 20.147-45 45v15h-287v30l30 30h437v-75c0-24.853-20.147-45-45-45z" fill="#4e4cd3"/><path d="m467 90-120 151 120 151h22.5c4.142 0 7.5-3.358 7.5-7.5v-294.5z" fill="#95b0ed"/><path d="m0 90v294.5c0 4.142 3.358 7.5 7.5 7.5h459.5v-30l-60-121 60-121v-30z" fill="#acd2f6"/><path d="m437 120-60 121 60 121h30v-242z" fill="#c4f3ff"/><path d="m30 120v242h61.602l156.898-20 154.898 20h33.602v-242z" fill="#fff"/><circle cx="452" cy="45" fill="#05ff77" r="15"/><circle cx="392" cy="45" fill="#ffd06a" r="15"/><circle cx="332" cy="45" fill="#ff545a" r="15"/><path d="m361.792 260.134 17.145-17.145c2.62-2.62 2.961-6.781.742-9.747-9.484-12.674-20.748-23.937-33.421-33.421-2.966-2.22-7.127-1.878-9.747.742l-17.145 17.145c-12.688-7.995-26.797-13.937-41.866-17.357v-24.248c0-3.704-2.699-6.888-6.366-7.415-7.718-1.11-15.608-1.688-23.634-1.688s-15.916.578-23.634 1.687c-3.667.527-6.366 3.711-6.366 7.415v24.248c-15.069 3.42-29.178 9.362-41.866 17.357l-17.145-17.145c-2.62-2.62-6.781-2.961-9.747-.742-12.674 9.484-23.937 20.748-33.421 33.421-2.22 2.966-1.878 7.127.742 9.747l17.145 17.145c-7.995 12.688-13.937 26.797-17.357 41.866h-24.249c-3.704 0-6.888 2.699-7.415 6.366-1.109 7.719-1.687 15.609-1.687 23.635s.578 15.916 1.687 23.634c.527 3.667 3.711 6.366 7.415 6.366h24.248c3.42 15.069 9.362 29.178 17.357 41.866l-17.145 17.145c-2.62 2.62-2.961 6.781-.742 9.747 9.484 12.674 20.748 23.937 33.421 33.421 2.966 2.22 7.127 1.878 9.747-.742l17.145-17.145c12.688 7.995 26.797 13.938 41.866 17.357v24.248c0 3.704 2.699 6.888 6.366 7.415 7.719 1.109 15.609 1.687 23.634 1.687s15.916-.578 23.634-1.687c3.667-.527 6.366-3.711 6.366-7.415v-24.248c15.069-3.42 29.178-9.362 41.866-17.357l17.145 17.145c2.62 2.62 6.781 2.961 9.747.742 12.674-9.484 23.937-20.747 33.421-33.421 2.22-2.966 1.878-7.127-.742-9.747l-17.145-17.145c7.995-12.688 13.937-26.797 17.357-41.866h24.248c3.704 0 6.888-2.699 7.415-6.366 1.109-7.719 1.687-15.609 1.687-23.634s-.578-15.916-1.687-23.634c-.527-3.667-3.711-6.366-7.415-6.366h-24.248c-3.419-15.069-9.361-29.178-17.356-41.866z" fill="#7d8fe5"/><path d="m247.5 227c24.853 0 45 47.01 45 105s-20.147 105-45 105c57.99 0 105-47.01 105-105s-47.01-105-105-105z" fill="#4e4cd3"/><path d="m322.5 332c0-57.99-33.579-105-75-105-57.99 0-105 47.01-105 105s47.01 105 105 105c41.421 0 75-47.01 75-105z" fill="#666ddc"/><circle cx="247.5" cy="332" fill="#fff" r="30"/></g></svg>